<svg width="324" height="455" viewBox="0 0 324 455" fill="none" xmlns="http://www.w3.org/2000/svg">
<path d="M244.521 101.452H89.6257C81.3177 101.452 78.5577 104.03 78.5577 111.636C78.5577 119.242 81.3598 121.82 89.6257 121.82H244.521C252.815 121.82 255.589 119.242 255.589 111.636C255.589 104.03 252.815 101.452 244.521 101.452Z" fill="white"/>
<path d="M251.793 142.175H163.431C158.696 142.175 157.112 144.753 157.112 152.359C157.112 159.964 158.696 162.543 163.431 162.543H251.793C256.528 162.543 258.111 159.964 258.111 152.359C258.111 144.753 256.528 142.175 251.793 142.175Z" fill="white"/>
<path d="M286.872 0H37.1279C27.2043 0.074924 17.7191 3.7724 10.7572 10.2797C3.79528 16.787 -0.0735554 25.5716 0.00105958 34.7025V362.829C-0.0698241 371.958 3.80066 380.739 10.7621 387.244C17.7236 393.748 27.2067 397.444 37.1279 397.519H75.1513V451.274L112.53 416.327L146.225 455V397.519H286.872C296.798 397.444 306.285 393.745 313.248 387.235C320.21 380.725 324.077 371.937 323.999 362.804V34.7025C324.038 30.1808 323.108 25.6964 321.263 21.5053C319.418 17.3141 316.694 13.4984 313.247 10.276C309.799 7.0535 305.696 4.48743 301.17 2.72428C296.645 0.96112 291.786 0.0354108 286.872 0ZM126.218 402.675L114.071 388.715L95.1577 406.401V362.713C105.362 364.907 115.965 365.013 126.218 363.023V402.675ZM111.437 345.955C101.232 345.955 91.2559 343.171 82.7705 337.954C74.285 332.737 67.6714 325.322 63.766 316.647C59.8606 307.971 58.8387 298.425 60.8297 289.215C62.8207 280.006 67.735 271.546 74.9513 264.906C82.1676 258.266 91.3617 253.744 101.371 251.913C111.38 250.081 121.755 251.021 131.184 254.614C140.612 258.208 148.671 264.293 154.341 272.101C160.01 279.908 163.037 289.088 163.037 298.478C163.022 311.065 157.581 323.133 147.907 332.034C138.234 340.935 125.118 345.942 111.437 345.955ZM300.42 362.817C300.446 366.138 299.038 369.332 296.506 371.699C293.973 374.065 290.523 375.41 286.914 375.437H146.225V356.049C160.021 348.991 170.895 337.935 177.155 324.602C183.416 311.269 184.712 296.406 180.842 282.326C176.971 268.245 168.152 255.736 155.755 246.744C143.359 237.753 128.08 232.783 112.296 232.608C96.512 232.434 81.1078 237.064 68.4798 245.778C55.8518 254.493 46.7079 266.804 42.4709 280.795C38.2338 294.786 39.1409 309.673 45.0513 323.141C50.9616 336.609 61.5437 347.901 75.1513 355.262V375.45H37.1279C35.3414 375.436 33.5752 375.099 31.9304 374.458C30.2855 373.816 28.794 372.883 27.5412 371.711C26.2884 370.539 25.2987 369.151 24.6286 367.627C23.9586 366.104 23.6213 364.473 23.6361 362.829V34.7025C23.6213 33.0587 23.9586 31.4284 24.6286 29.9045C25.2987 28.3806 26.2884 26.9931 27.5412 25.8212C28.794 24.6493 30.2855 23.7159 31.9304 23.0744C33.5752 22.4329 35.3414 22.0957 37.1279 22.0822H286.872C290.481 22.1095 293.931 23.454 296.464 25.8204C298.996 28.1869 300.404 31.3815 300.378 34.7025L300.42 362.817Z" fill="white"/>
</svg>
