<svg width="33" height="30" viewBox="0 0 33 30" fill="none" xmlns="http://www.w3.org/2000/svg">
<g clip-path="url(#clip0_49_18256)">
<path fill-rule="evenodd" clip-rule="evenodd" d="M4.0835 3.05225V26.9518C4.0835 28.3479 5.34042 29.4796 6.89092 29.4796H25.7772C27.3277 29.4796 28.5846 28.3479 28.5846 26.9518V7.17621C28.5846 6.50097 28.2846 5.8538 27.7514 5.37896L23.1207 1.255C22.5951 0.786939 21.8857 0.524414 21.1465 0.524414H6.89092C5.34042 0.524414 4.0835 1.65617 4.0835 3.05225ZM5.87004 26.9518V3.05225C5.87004 2.54458 6.3271 2.13304 6.89092 2.13304H20.8004V7.64832C20.8004 8.60019 21.6574 9.37184 22.7146 9.37184H26.7981V26.9518C26.7981 27.4595 26.341 27.871 25.7772 27.871H6.89092C6.3271 27.871 5.87004 27.4595 5.87004 26.9518ZM26.7981 7.76322V7.17621C26.7981 6.93067 26.689 6.69533 26.4951 6.52267L22.587 3.0422V7.64832C22.587 7.71178 22.6441 7.76322 22.7146 7.76322H26.7981Z" fill="#9D9C9B"/>
<path fill-rule="evenodd" clip-rule="evenodd" d="M8.16699 12.2877C8.16699 11.609 8.42221 11.3828 9.18787 11.3828H23.4802C24.2459 11.3828 24.5011 11.609 24.5011 12.2877C24.5011 12.9663 24.2459 13.1925 23.4802 13.1925H9.18787C8.42221 13.1925 8.16699 12.9663 8.16699 12.2877Z" fill="#C9C7C5"/>
<path fill-rule="evenodd" clip-rule="evenodd" d="M8.16699 15.9068C8.16699 15.2282 8.42221 15.002 9.18787 15.002H23.4802C24.2459 15.002 24.5011 15.2282 24.5011 15.9068C24.5011 16.5854 24.2459 16.8117 23.4802 16.8117H9.18787C8.42221 16.8117 8.16699 16.5854 8.16699 15.9068Z" fill="#C9C7C5"/>
<path fill-rule="evenodd" clip-rule="evenodd" d="M8.16699 19.5264C8.16699 18.8478 8.42221 18.6216 9.18787 18.6216H23.4802C24.2459 18.6216 24.5011 18.8478 24.5011 19.5264C24.5011 20.2051 24.2459 20.4313 23.4802 20.4313H9.18787C8.42221 20.4313 8.16699 20.2051 8.16699 19.5264Z" fill="#C9C7C5"/>
<path fill-rule="evenodd" clip-rule="evenodd" d="M8.16699 23.1456C8.16699 22.4669 8.42221 22.2407 9.18787 22.2407H23.4802C24.2459 22.2407 24.5011 22.4669 24.5011 23.1456C24.5011 23.8242 24.2459 24.0504 23.4802 24.0504H9.18787C8.42221 24.0504 8.16699 23.8242 8.16699 23.1456Z" fill="#C9C7C5"/>
</g>
<rect x="4.08325" y="13.1924" width="24.5011" height="9.04851" fill="#C62323"/>
<path d="M20.771 15.6665V19.5263H19.7212V15.6665H20.771ZM22.4638 17.273V17.9887H20.4719V17.273H22.4638ZM22.6343 15.6665V16.3849H20.4719V15.6665H22.6343Z" fill="white"/>
<path d="M16.5575 19.5263H15.5915L15.5974 18.8105H16.5575C16.7569 18.8105 16.9254 18.7681 17.063 18.6833C17.2025 18.5984 17.3082 18.4721 17.38 18.3042C17.4538 18.1345 17.4906 17.926 17.4906 17.6786V17.5116C17.4906 17.326 17.4697 17.1634 17.4278 17.0238C17.388 16.8824 17.3281 16.7649 17.2484 16.6712C17.1686 16.5758 17.0689 16.5042 16.9493 16.4565C16.8317 16.4088 16.6961 16.3849 16.5425 16.3849H15.5735V15.6665H16.5425C16.8376 15.6665 17.1078 15.7116 17.3531 15.8017C17.6003 15.8901 17.8137 16.0173 17.9931 16.1834C18.1746 16.3478 18.3141 16.5431 18.4118 16.7693C18.5115 16.9937 18.5614 17.2429 18.5614 17.5169V17.6786C18.5614 17.9507 18.5115 18.1999 18.4118 18.4261C18.3141 18.6523 18.1756 18.8476 17.9961 19.012C17.8167 19.1763 17.6043 19.3036 17.359 19.3937C17.1158 19.4821 16.8486 19.5263 16.5575 19.5263ZM16.1926 15.6665V19.5263H15.1428V15.6665H16.1926Z" fill="white"/>
<path d="M12.2785 18.2167H11.1958V17.4983H12.2785C12.426 17.4983 12.5456 17.4762 12.6374 17.432C12.7291 17.3878 12.7959 17.3269 12.8378 17.2491C12.8816 17.1696 12.9036 17.0803 12.9036 16.9814C12.9036 16.8753 12.8816 16.7772 12.8378 16.6871C12.7959 16.597 12.7291 16.5245 12.6374 16.4697C12.5456 16.4132 12.426 16.3849 12.2785 16.3849H11.5906V19.5263H10.5408V15.6665H12.2785C12.6274 15.6665 12.9275 15.7231 13.1787 15.8362C13.4319 15.9493 13.6263 16.1048 13.7619 16.3027C13.8975 16.4989 13.9653 16.7233 13.9653 16.9761C13.9653 17.2253 13.8975 17.4426 13.7619 17.6282C13.6263 17.8138 13.4319 17.9587 13.1787 18.0629C12.9275 18.1654 12.6274 18.2167 12.2785 18.2167Z" fill="white"/>
<defs>
<clipPath id="clip0_49_18256">
<rect width="32.6682" height="28.9552" fill="white" transform="translate(0 0.524414)"/>
</clipPath>
</defs>
</svg>
