<svg width="34" height="30" viewBox="0 0 34 30" fill="none" xmlns="http://www.w3.org/2000/svg">
<g clip-path="url(#clip0_49_18255)">
<path fill-rule="evenodd" clip-rule="evenodd" d="M8.66211 3.41798V27.3545C8.66211 28.7527 9.9318 29.8862 11.498 29.8862H30.5762C32.1424 29.8862 33.4121 28.7527 33.4121 27.3545V7.54832C33.4121 6.87203 33.109 6.22386 32.5704 5.74829L27.8927 1.61795C27.3618 1.14916 26.6452 0.88623 25.8984 0.88623H11.498C9.9318 0.88623 8.66211 2.01973 8.66211 3.41798ZM10.4668 27.3545V3.41798C10.4668 2.90952 10.9285 2.49734 11.498 2.49734H25.5488V8.02115C25.5488 8.9745 26.4145 9.74734 27.4824 9.74734H31.6074V27.3545C31.6074 27.8629 31.1457 28.2751 30.5762 28.2751H11.498C10.9285 28.2751 10.4668 27.8629 10.4668 27.3545ZM31.6074 8.13623V7.54832C31.6074 7.30239 31.4972 7.06669 31.3014 6.89376L27.3535 3.40791V8.02115C27.3535 8.08471 27.4112 8.13623 27.4824 8.13623H31.6074Z" fill="#9D9C9B"/>
<path fill-rule="evenodd" clip-rule="evenodd" d="M21.5527 12.7808C21.5527 12.3428 21.9567 11.9878 22.4551 11.9878H28.3848C28.8831 11.9878 29.2871 12.3428 29.2871 12.7808C29.2871 13.2187 28.8831 13.5737 28.3848 13.5737H22.4551C21.9567 13.5737 21.5527 13.2187 21.5527 12.7808Z" fill="#69C997"/>
<path fill-rule="evenodd" clip-rule="evenodd" d="M21.5527 16.4058C21.5527 15.9678 21.9567 15.6128 22.4551 15.6128H28.3848C28.8831 15.6128 29.2871 15.9678 29.2871 16.4058C29.2871 16.8437 28.8831 17.1987 28.3848 17.1987H22.4551C21.9567 17.1987 21.5527 16.8437 21.5527 16.4058Z" fill="#54AD7D"/>
<path fill-rule="evenodd" clip-rule="evenodd" d="M21.5527 20.0308C21.5527 19.5928 21.9567 19.2378 22.4551 19.2378H28.3848C28.8831 19.2378 29.2871 19.5928 29.2871 20.0308C29.2871 20.4687 28.8831 20.8237 28.3848 20.8237H22.4551C21.9567 20.8237 21.5527 20.4687 21.5527 20.0308Z" fill="#2B593D"/>
<path d="M0.412109 9.26904C0.412109 8.51828 1.10467 7.90967 1.95898 7.90967H17.4277C18.282 7.90967 18.9746 8.51828 18.9746 9.26904V22.8628C18.9746 23.6136 18.282 24.2222 17.4277 24.2222H1.95898C1.10467 24.2222 0.412109 23.6136 0.412109 22.8628V9.26904Z" fill="#3D8A58"/>
<path d="M5.56836 20.6166L8.46573 15.8774L5.83624 11.5347H7.83832L9.53726 14.4525L11.201 11.5347H13.1819L10.5524 15.9456L13.4498 20.6166H11.3842L9.50201 17.4757L7.61978 20.6166H5.56836Z" fill="white"/>
</g>
<defs>
<clipPath id="clip0_49_18255">
<rect width="33" height="29" fill="white" transform="translate(0.412109 0.88623)"/>
</clipPath>
</defs>
</svg>
