<svg width="235" height="55" viewBox="0 0 235 55" fill="none" xmlns="http://www.w3.org/2000/svg">
<path d="M52.7974 27.3C52.7974 41.3792 41.3794 52.7972 27.3002 52.7972C13.2209 52.7972 1.79443 41.3792 1.79443 27.3C1.79443 13.2208 13.2209 1.79425 27.3002 1.79425C41.3794 1.79425 52.7974 13.2122 52.7974 27.3Z" fill="white"/>
<path d="M27.3 54.6C12.2421 54.6 0 42.3493 0 27.3C0 12.2507 12.2421 0 27.3 0C42.3579 0 54.6 12.2507 54.6 27.3C54.6 42.3493 42.3493 54.6 27.3 54.6ZM27.3 3.59708C14.2252 3.59708 3.59708 14.2338 3.59708 27.3C3.59708 40.3662 14.2338 51.0029 27.3 51.0029C40.3662 51.0029 51.0029 40.3662 51.0029 27.3C51.0029 14.2338 40.3662 3.59708 27.3 3.59708Z" fill="#003265"/>
<path d="M33.2581 32.7858H24.7505V39.3103L35.6447 39.3446C37.0698 39.3446 38.2803 38.7437 39.2761 37.5332C40.272 36.3313 40.7699 34.8719 40.7699 33.1721V32.7858H33.2581Z" fill="#657CA5"/>
<path d="M35.5928 21.1274V14.5771H30.4677L20.3031 14.6201C18.8351 14.5857 17.6161 15.118 16.646 16.2169C15.6673 17.3071 15.1865 18.9469 15.1865 21.1274V23.9347C15.1865 26.0895 15.6158 27.609 16.4743 28.4847C17.3327 29.3604 18.6205 29.8068 20.3375 29.8068H40.7781C40.7438 27.8752 40.2716 26.4329 39.3702 25.4628C38.4688 24.5013 37.2411 23.9862 35.6873 23.9347H21.9085V21.1274H35.6014H35.5928Z" fill="#003265"/>
<path d="M22.6726 35.7905C22.6726 37.6276 21.1789 39.1214 19.3417 39.1214C17.5045 39.1214 16.0107 37.6276 16.0107 35.7905C16.0107 33.9533 17.5045 32.4595 19.3417 32.4595C21.1789 32.4595 22.6726 33.9533 22.6726 35.7905Z" fill="#97A6C4"/>
<path d="M78.1518 24.1453C76.9675 23.485 75.3849 22.4893 72.2301 22.4893C69.5785 22.4893 68.216 23.181 68.216 24.3968C68.216 25.7803 68.7086 26.2205 72.838 26.2205C79.3047 26.2205 80.0593 28.1804 80.0593 30.4233C80.0593 34.5423 76.2129 35.2654 73.0057 35.2654C68.1112 35.2654 65.5434 33.4942 64.6001 32.8339L65.7635 30.7063C67.4194 31.702 69.023 32.8339 73.0686 32.8339C75.6364 32.8339 77.4391 32.2784 77.4391 30.6748C77.4391 28.8512 76.4959 28.7673 71.1401 28.652C67.8806 28.5682 65.6063 27.6563 65.6063 24.6693C65.6063 22.2587 67.3985 20.0577 72.2197 20.0577C75.6993 20.0577 78.33 21.4622 79.2942 21.9653L78.1623 24.1453H78.1518Z" fill="#003265"/>
<path d="M88.2762 27.258C87.1862 27.541 84.1048 28.369 84.1048 30.266C84.1048 32.1631 86.5888 33.1378 88.8317 33.1378C91.0746 33.1378 92.3532 32.4146 92.8458 31.9115L88.2762 27.258ZM98.474 34.8147H95.6232L94.3236 33.4941C93.0764 34.3745 90.8754 35.192 88.7164 35.192C85.3311 35.192 82.0925 33.4942 82.061 30.2032C82.061 27.279 85.6036 26.0108 86.7879 25.6859C86.3896 25.1514 85.1424 23.8518 85.1424 22.7618C85.1424 20.7704 87.4167 19.3345 90.1522 19.3345C91.7977 19.3345 93.4223 19.911 94.9001 20.5818L93.9777 22.4578C93.024 21.9443 91.7768 21.3678 90.1732 21.3678C88.8526 21.3678 87.1862 21.9967 87.1862 22.6674C87.1862 23.0867 87.532 23.4325 87.836 23.7365L94.4599 30.6224C95.0573 29.9935 96.032 28.8407 96.6399 27.8135L98.3063 28.9035C97.4469 30.4337 96.8181 31.1988 95.8957 32.1316L98.4636 34.8147" fill="#003265"/>
<path d="M103.128 20.4874H100.696V34.8147H103.128V20.4874Z" fill="#003265"/>
<path d="M125.001 33.0435C124.425 33.4313 122.014 35.2549 117.728 35.2549C112.498 35.2549 108.819 32.2155 108.819 27.6249C108.819 23.0343 112.581 20.0472 117.392 20.0472C121.406 20.0472 123.67 21.8395 124.834 22.7303L123.534 24.7741C121.983 23.747 120.358 22.4788 117.392 22.4788C113.609 22.4788 111.25 24.8579 111.25 27.7926C111.25 30.308 113.326 32.8234 117.696 32.8234C121.04 32.8234 123.167 31.3037 123.922 30.8006L125.001 33.0435Z" fill="#7C90B4"/>
<path d="M139.109 34.8147H127.936V20.4874H130.368V32.3832H139.109V34.8147Z" fill="#7C90B4"/>
<path d="M154.096 34.8147H141.215V20.4874H153.823V22.9295H143.646V26.2204H149.233V28.652H143.646V32.3832H154.096V34.8147Z" fill="#7C90B4"/>
<path d="M163.026 23.2334L159.903 29.0398H166.149L163.026 23.2334ZM172.071 34.8147H169.199L167.375 31.4713H158.634L156.863 34.8147H154.096L161.842 20.4874H164.273L172.071 34.8147Z" fill="#7C90B4"/>
<path d="M187.729 34.8147H185.287L176.337 24.1662V34.8147H173.895V20.4874H176.337L185.287 31.115V20.4874H187.729V34.8147Z" fill="#7C90B4"/>
<path d="M195.632 20.4874H193.2V34.8147H195.632V20.4874Z" fill="#7C90B4"/>
<path d="M214.969 34.8147H212.527L203.576 24.1662V34.8147H201.134V20.4874H203.576L212.527 31.115V20.4874H214.969V34.8147Z" fill="#7C90B4"/>
<path d="M234.18 32.7186C233.017 33.5256 230.774 35.2654 226.959 35.2654C221.645 35.2654 218.354 31.7229 218.354 27.6563C218.354 23.5898 221.509 20.0472 227.032 20.0472C230.847 20.0472 232.975 21.7871 233.803 22.395L232.398 24.3549C230.826 23.3068 228.94 22.4788 227.032 22.4788C222.882 22.4788 220.786 24.9942 220.786 27.6773C220.786 30.3604 222.966 32.8234 226.98 32.8234C228.646 32.8234 230.323 32.2679 231.738 31.4399V29.2599H227.619V26.8283H234.17V32.7186H234.18Z" fill="#7C90B4"/>
</svg>
